<svg width="240" height="240" viewBox="0 0 240 240" fill="none" xmlns="http://www.w3.org/2000/svg">
<rect width="240" height="240" fill="#EF2C5A"/>
<path d="M152.674 192.984C137.742 192.984 124.338 183.831 118.905 169.927L111.867 151.937C111.145 150.303 110.378 149.245 109.566 148.754C108.749 148.263 107.426 148.017 105.596 148.017H102.464L100.609 163.225C98.5337 180.212 84.1127 192.984 67 192.984L81.3709 76.0824C83.456 59.095 97.887 46.3281 115.005 46.3281L104.915 128.523H106.97C108.669 128.523 110.037 128.263 111.085 127.741C112.128 127.22 113.175 126.273 114.218 124.899L128.94 104.729C134.975 96.4633 144.569 91.551 154.799 91.4958L172.017 91.3956L143.606 127.546C142.298 129.245 140.864 130.749 139.295 132.052C137.727 133.36 136.092 134.503 134.398 135.481C135.772 136.593 136.96 137.882 137.972 139.35C138.985 140.819 139.882 142.503 140.664 144.398L161.04 192.989H152.674V192.984Z" fill="white"/>
</svg>
